<?xml version="1.0" encoding="utf-8"?>
<!-- Generator: Adobe Illustrator 15.0.0, SVG Export Plug-In . SVG Version: 6.00 Build 0)  -->
<!DOCTYPE svg PUBLIC "-//W3C//DTD SVG 1.1//EN" "http://www.w3.org/Graphics/SVG/1.1/DTD/svg11.dtd" [
	<!ENTITY ns_extend "http://ns.adobe.com/Extensibility/1.0/">
	<!ENTITY ns_ai "http://ns.adobe.com/AdobeIllustrator/10.0/">
	<!ENTITY ns_graphs "http://ns.adobe.com/Graphs/1.0/">
	<!ENTITY ns_vars "http://ns.adobe.com/Variables/1.0/">
	<!ENTITY ns_imrep "http://ns.adobe.com/ImageReplacement/1.0/">
	<!ENTITY ns_sfw "http://ns.adobe.com/SaveForWeb/1.0/">
	<!ENTITY ns_custom "http://ns.adobe.com/GenericCustomNamespace/1.0/">
	<!ENTITY ns_adobe_xpath "http://ns.adobe.com/XPath/1.0/">
]>
<svg version="1.1" id="Calque_1" xmlns:x="&ns_extend;" xmlns:i="&ns_ai;" xmlns:graph="&ns_graphs;"
	 xmlns="http://www.w3.org/2000/svg" xmlns:xlink="http://www.w3.org/1999/xlink" x="0px" y="0px" width="56px" height="56px"
	 viewBox="0 0 56 56" enable-background="new 0 0 56 56" xml:space="preserve">
<metadata>
	<sfw  xmlns="&ns_sfw;">
		<slices></slices>
		<sliceSourceBounds  x="-0.5" y="0.5" width="56" height="56" bottomLeftOrigin="true"></sliceSourceBounds>
	</sfw>
</metadata>
<polygon fill="#FFB300" points="38.067,5.547 53.082,5.547 52.869,7.459 45.15,12.554 40.759,9.725 38.067,7.176 "/>
<rect x="38.067" y="20.844" fill="#FFB300" width="14.802" height="2.263"/>
<g>
	<g>
		<path d="M49,26.906h-0.355h-1.785h-2.573h-1.838h-2.61h-1.121V28c0,0.01,0.002,0.02,0.002,0.029v22.284
			c0,1.318,0.453,2.533,1.209,3.5H5.688c-1.93,0-3.5-1.57-3.5-3.5V3.736l2.004,2.003c0.427,0.427,1.119,0.427,1.547,0l3.098-3.098
			l3.099,3.098c0.427,0.427,1.12,0.427,1.547,0l3.099-3.098l3.098,3.098c0.428,0.427,1.12,0.427,1.547,0l3.099-3.098l3.099,3.098
			c0.428,0.427,1.12,0.427,1.546,0l3.1-3.098c0.486-0.552,0.937-1.134,1.492-1.601l-0.721-0.72c-0.427-0.427-1.119-0.427-1.547,0
			l-3.097,3.099L25.097,0.32c-0.427-0.427-1.12-0.427-1.547,0l-3.099,3.099L17.354,0.32c-0.428-0.427-1.12-0.427-1.547,0l-3.1,3.099
			L9.61,0.32c-0.427-0.427-1.119-0.427-1.547,0L4.965,3.419L1.867,0.32c-0.425-0.424-1.111-0.427-1.54-0.006
			C0.102,0.536-0.007,0.83,0,1.123v49.189C0,53.449,2.552,56,5.688,56h38.716c0,0,0,0,0.002,0c3.136,0,5.688-2.551,5.688-5.688V28
			C50.094,27.396,49.604,26.906,49,26.906z M47.906,50.313c0,1.931-1.57,3.5-3.5,3.5s-3.5-1.569-3.5-3.5V29.094h7V50.313z"/>
		<path d="M19.454,24.934c-1.086,0-1.969-0.756-1.969-1.686c0-0.604-0.49-1.094-1.094-1.094s-1.094,0.489-1.094,1.094
			c0,1.783,1.299,3.287,3.063,3.736v0.893c0,0.604,0.489,1.094,1.094,1.094c0.604,0,1.094-0.49,1.094-1.094v-0.893
			c1.762-0.449,3.063-1.953,3.063-3.736c0-2.136-1.865-3.873-4.156-3.873c-1.086,0-1.969-0.756-1.969-1.686
			c0-0.929,0.883-1.686,1.969-1.686c1.085,0,1.969,0.756,1.969,1.686c0,0.604,0.489,1.094,1.094,1.094
			c0.604,0,1.094-0.489,1.094-1.094c0-1.783-1.301-3.287-3.063-3.736v-0.741c0-0.604-0.49-1.094-1.094-1.094
			s-1.094,0.49-1.094,1.094v0.741c-1.764,0.449-3.063,1.953-3.063,3.736c0,2.136,1.864,3.873,4.156,3.873
			c1.085,0,1.969,0.756,1.969,1.686C21.422,24.177,20.539,24.934,19.454,24.934z"/>
		<path d="M28.31,19.375c-0.604,0-1.094,0.49-1.094,1.094c0,0.604,0.489,1.094,1.094,1.094h2.131c0.365,0,0.676-0.192,0.873-0.47
			c-0.385-0.548-0.729-1.123-1.033-1.718H28.31z"/>
		<path d="M11.69,20.469c0-0.604-0.489-1.094-1.094-1.094H8.465c-0.604,0-1.094,0.49-1.094,1.094c0,0.604,0.489,1.094,1.094,1.094
			h2.131C11.201,21.563,11.69,21.073,11.69,20.469z"/>
		<path d="M31.534,20.469c0-0.604-0.488-1.094-1.095-1.094H28.31c-0.604,0-1.094,0.49-1.094,1.094c0,0.604,0.489,1.094,1.094,1.094
			h2.129C31.046,21.563,31.534,21.073,31.534,20.469z"/>
		<path d="M30.994,31.532H13.667c-0.604,0-1.094,0.489-1.094,1.094s0.489,1.095,1.094,1.095h17.327c0.604,0,1.094-0.49,1.094-1.095
			S31.6,31.532,30.994,31.532z"/>
		<path d="M8.684,31.854c-0.203-0.205-0.485-0.32-0.773-0.32c-0.287,0-0.569,0.115-0.773,0.32c-0.203,0.203-0.32,0.484-0.32,0.772
			s0.117,0.569,0.32,0.772c0.204,0.203,0.486,0.32,0.773,0.32c0.288,0,0.57-0.117,0.773-0.32s0.32-0.484,0.32-0.772
			S8.887,32.057,8.684,31.854z"/>
		<path d="M30.994,38.75H13.667c-0.604,0-1.094,0.49-1.094,1.094c0,0.604,0.489,1.094,1.094,1.094h17.327
			c0.604,0,1.094-0.488,1.094-1.094C32.088,39.24,31.6,38.75,30.994,38.75z"/>
		<path d="M8.684,39.07c-0.203-0.203-0.485-0.32-0.773-0.32c-0.287,0-0.569,0.117-0.773,0.32c-0.203,0.203-0.32,0.486-0.32,0.772
			c0,0.288,0.117,0.57,0.32,0.773c0.204,0.202,0.486,0.319,0.773,0.319c0.288,0,0.57-0.117,0.773-0.319
			c0.203-0.203,0.32-0.485,0.32-0.773C9.004,39.557,8.887,39.273,8.684,39.07z"/>
		<path d="M30.994,45.969H13.667c-0.604,0-1.094,0.49-1.094,1.094c0,0.604,0.489,1.095,1.094,1.095h17.327
			c0.604,0,1.094-0.489,1.094-1.095C32.088,46.459,31.6,45.969,30.994,45.969z"/>
		<path d="M7.911,45.969c-0.287,0-0.569,0.117-0.773,0.32c-0.203,0.204-0.32,0.486-0.32,0.773s0.117,0.569,0.32,0.772
			c0.204,0.203,0.486,0.319,0.773,0.319c0.288,0,0.57-0.116,0.773-0.319s0.32-0.485,0.32-0.772s-0.117-0.569-0.32-0.773
			C8.481,46.086,8.199,45.969,7.911,45.969z"/>
	</g>
	<g>
		<g>
			<g>
				<path d="M55.902,24.757H34.852v-1.3h1.855v-4.271c0-1.523,0.785-2.935,2.1-3.775l4.463-2.857l-4.463-2.857
					c-1.313-0.841-2.1-2.253-2.1-3.775V1.65h-1.855v-1.3h21.051v1.3h-1.854v4.271c0,1.522-0.784,2.934-2.098,3.775l-4.464,2.857
					l4.464,2.857c1.313,0.841,2.098,2.252,2.098,3.775v4.271h1.854V24.757L55.902,24.757z M39.01,23.457h12.733v-4.271
					c0-0.755-0.394-1.457-1.054-1.879l-5.313-3.402l-5.314,3.402c-0.658,0.422-1.053,1.125-1.053,1.879V23.457z M40.063,7.8
					l5.314,3.402L50.689,7.8c0.66-0.422,1.054-1.125,1.054-1.879V1.65H39.01v4.271C39.01,6.675,39.402,7.378,40.063,7.8L40.063,7.8z
					"/>
			</g>
		</g>
		<g>
			<path d="M55,2H35.753c-0.553,0-1-0.448-1-1s0.447-1,1-1H55c0.553,0,1,0.448,1,1S55.553,2,55,2z"/>
		</g>
		<g>
			<path d="M55,25.107H35.753c-0.553,0-1-0.448-1-1c0-0.552,0.447-1,1-1H55c0.553,0,1,0.448,1,1C56,24.659,55.553,25.107,55,25.107z
				"/>
		</g>
	</g>
</g>
</svg>
