<?xml version="1.0" encoding="utf-8"?>
<!-- Generator: Adobe Illustrator 15.0.0, SVG Export Plug-In . SVG Version: 6.00 Build 0)  -->
<!DOCTYPE svg PUBLIC "-//W3C//DTD SVG 1.1//EN" "http://www.w3.org/Graphics/SVG/1.1/DTD/svg11.dtd" [
	<!ENTITY ns_extend "http://ns.adobe.com/Extensibility/1.0/">
	<!ENTITY ns_ai "http://ns.adobe.com/AdobeIllustrator/10.0/">
	<!ENTITY ns_graphs "http://ns.adobe.com/Graphs/1.0/">
	<!ENTITY ns_vars "http://ns.adobe.com/Variables/1.0/">
	<!ENTITY ns_imrep "http://ns.adobe.com/ImageReplacement/1.0/">
	<!ENTITY ns_sfw "http://ns.adobe.com/SaveForWeb/1.0/">
	<!ENTITY ns_custom "http://ns.adobe.com/GenericCustomNamespace/1.0/">
	<!ENTITY ns_adobe_xpath "http://ns.adobe.com/XPath/1.0/">
]>
<svg version="1.1" id="Capa_1" xmlns:x="&ns_extend;" xmlns:i="&ns_ai;" xmlns:graph="&ns_graphs;"
	 xmlns="http://www.w3.org/2000/svg" xmlns:xlink="http://www.w3.org/1999/xlink" x="0px" y="0px" width="56px" height="56px"
	 viewBox="0 0 56 56" enable-background="new 0 0 56 56" xml:space="preserve">
<metadata>
	<sfw  xmlns="&ns_sfw;">
		<slices></slices>
		<sliceSourceBounds  x="-0.5" y="0.5" width="56" height="56" bottomLeftOrigin="true"></sliceSourceBounds>
	</sfw>
</metadata>
<circle fill="#FFB300" cx="16.414" cy="17.547" r="12.01"/>
<g>
	<g>
		<path d="M54.906,22.832h-7c-0.604,0-1.094,0.49-1.094,1.094v15.523c0,0.604,0.489,1.094,1.094,1.094
			c0.604,0,1.094-0.49,1.094-1.094V25.02h4.813v28.792h-2.405H49v-16.16c0-0.604-0.49-1.094-1.094-1.094
			c-0.604,0-1.094,0.49-1.094,1.094v16.16h-2.188V31.172c0-0.604-0.49-1.094-1.095-1.094h-7c-0.604,0-1.094,0.49-1.094,1.094v22.641
			H33.25V38.828c0-0.604-0.49-1.094-1.094-1.094h-7c-0.604,0-1.094,0.49-1.094,1.094v14.984h-2.188v-8.709
			c0-0.604-0.49-1.095-1.094-1.095h-7c-0.604,0-1.094,0.49-1.094,1.095v8.709H3.281c-0.603,0-1.094-0.49-1.094-1.095V3.281
			c0-0.603,0.491-1.094,1.094-1.094h28.216v7.219c0,1.809,1.472,3.281,3.28,3.281h7.22V26.14c0,0.604,0.489,1.094,1.094,1.094
			s1.095-0.49,1.095-1.094V11.594c0-0.29-0.115-0.568-0.32-0.773l-10.5-10.5C33.159,0.115,32.881,0,32.591,0H3.281
			C1.472,0,0,1.472,0,3.281v49.438C0,54.527,1.472,56,3.281,56h51.625C55.51,56,56,55.51,56,54.906v-30.98
			C56,23.322,55.51,22.832,54.906,22.832z M33.686,3.734l6.767,6.766h-5.673c-0.604,0-1.094-0.491-1.094-1.094V3.734z
			 M19.688,53.813h-4.813v-7.614h4.813V53.813z M31.063,53.813H26.25V39.922h4.813V53.813z M42.438,53.813h-4.813V32.266h4.813
			V53.813z"/>
	</g>
</g>
<g>
	<g>
		<path d="M27.891,32.184H7c-0.604,0-1.094,0.49-1.094,1.094c0,0.604,0.49,1.094,1.094,1.094h20.891c0.604,0,1.093-0.49,1.093-1.094
			C28.984,32.673,28.495,32.184,27.891,32.184z"/>
	</g>
</g>
<g>
	<g>
		<path d="M14,37.461H7c-0.604,0-1.094,0.49-1.094,1.094c0,0.604,0.49,1.094,1.094,1.094h7c0.604,0,1.094-0.49,1.094-1.094
			C15.094,37.95,14.604,37.461,14,37.461z"/>
	</g>
</g>
<g>
	<g>
		<path d="M16.415,16.377c-1.085,0-1.969-0.756-1.969-1.686c0-0.929,0.883-1.686,1.969-1.686s1.969,0.756,1.969,1.686
			c0,0.604,0.489,1.094,1.094,1.094c0.604,0,1.094-0.49,1.094-1.094c0-1.783-1.301-3.287-3.063-3.736v-0.741
			c0-0.604-0.49-1.094-1.094-1.094s-1.094,0.49-1.094,1.094v0.741c-1.763,0.449-3.063,1.953-3.063,3.736
			c0,2.135,1.865,3.874,4.156,3.874c1.085,0,1.969,0.756,1.969,1.686s-0.884,1.686-1.969,1.686s-1.969-0.756-1.969-1.686
			c0-0.604-0.49-1.094-1.094-1.094s-1.094,0.489-1.094,1.094c0,1.783,1.3,3.287,3.063,3.736v0.893c0,0.604,0.49,1.094,1.094,1.094
			s1.094-0.49,1.094-1.094v-0.893c1.762-0.449,3.063-1.953,3.063-3.736C20.571,18.114,18.706,16.377,16.415,16.377z"/>
	</g>
</g>
</svg>
