<?xml version="1.0" encoding="utf-8"?>
<!-- Generator: Adobe Illustrator 15.0.0, SVG Export Plug-In . SVG Version: 6.00 Build 0)  -->
<!DOCTYPE svg PUBLIC "-//W3C//DTD SVG 1.1//EN" "http://www.w3.org/Graphics/SVG/1.1/DTD/svg11.dtd" [
	<!ENTITY ns_extend "http://ns.adobe.com/Extensibility/1.0/">
	<!ENTITY ns_ai "http://ns.adobe.com/AdobeIllustrator/10.0/">
	<!ENTITY ns_graphs "http://ns.adobe.com/Graphs/1.0/">
	<!ENTITY ns_vars "http://ns.adobe.com/Variables/1.0/">
	<!ENTITY ns_imrep "http://ns.adobe.com/ImageReplacement/1.0/">
	<!ENTITY ns_sfw "http://ns.adobe.com/SaveForWeb/1.0/">
	<!ENTITY ns_custom "http://ns.adobe.com/GenericCustomNamespace/1.0/">
	<!ENTITY ns_adobe_xpath "http://ns.adobe.com/XPath/1.0/">
]>
<svg version="1.1" id="Layer_1" xmlns:x="&ns_extend;" xmlns:i="&ns_ai;" xmlns:graph="&ns_graphs;"
	 xmlns="http://www.w3.org/2000/svg" xmlns:xlink="http://www.w3.org/1999/xlink" x="0px" y="0px" width="56px" height="56px"
	 viewBox="0 0 56 56" enable-background="new 0 0 56 56" xml:space="preserve">
<metadata>
	<sfw  xmlns="&ns_sfw;">
		<slices></slices>
		<sliceSourceBounds  x="6.028" y="0.5" width="42.945" height="56" bottomLeftOrigin="true"></sliceSourceBounds>
	</sfw>
</metadata>
<polygon fill="#FFB300" points="25.885,32.886 29.71,32.886 30.843,52.148 28.006,54.84 24.894,51.937 "/>
<g>
	<g>
		<path d="M7.592,46.213c0.571,0,1.04-0.469,1.04-1.04V39.41c0-0.914,0.4-1.771,1.098-2.344c5.134-4.219,10.69-7.021,11.754-7.547
			c0.491-0.24,0.789-0.72,0.789-1.269v-8.106c0-0.343-0.172-0.675-0.458-0.857c-0.766-0.515-1.234-1.372-1.234-2.287V8.609
			c0-3.602,2.927-6.528,6.528-6.528h1.806c3.603,0,6.528,2.927,6.528,6.528v8.403c0,0.926-0.457,1.772-1.234,2.287
			c-0.286,0.194-0.457,0.515-0.457,0.857v8.106c0,0.548,0.309,1.029,0.789,1.269c1.063,0.515,6.631,3.326,11.753,7.546
			c0.697,0.571,1.099,1.43,1.099,2.344v5.763c0,0.571,0.469,1.041,1.041,1.041c0.57,0,1.039-0.47,1.039-1.041v-5.763
			c0-1.532-0.675-2.973-1.863-3.944c-4.858-3.99-10.096-6.769-11.787-7.615v-7.18c1.063-0.915,1.691-2.241,1.691-3.67V8.609
			C37.514,3.864,33.648,0,28.902,0h-1.806c-4.744,0-8.609,3.864-8.609,8.609v8.403c0,1.417,0.629,2.755,1.692,3.67v7.18
			c-1.692,0.846-6.929,3.625-11.788,7.615c-1.178,0.973-1.863,2.412-1.863,3.944v5.763C6.563,45.744,7.021,46.213,7.592,46.213z"/>
		<path d="M30.801,29.555c-0.57,0-1.039,0.469-1.039,1.041c0,0.514-0.219,0.973-0.572,1.291c-0.067,0.047-0.138,0.092-0.194,0.16
			c-0.272,0.195-0.616,0.299-0.983,0.299c-0.959,0-1.748-0.789-1.748-1.75c0-0.572-0.469-1.041-1.041-1.041
			c-0.572,0-1.041,0.469-1.041,1.041c0,0.914,0.332,1.76,0.869,2.424l-0.846,19.494c-0.012,0.31,0.114,0.605,0.344,0.812
			l2.663,2.411C27.405,55.92,27.657,56,27.909,56c0.251,0,0.502-0.092,0.696-0.264l2.709-2.445c0.229-0.207,0.354-0.504,0.344-0.813
			l-0.869-19.267c0.641-0.687,1.041-1.601,1.041-2.604C31.842,30.023,31.373,29.555,30.801,29.555z M27.932,53.564l-1.612-1.451
			l0.766-17.825c0.298,0.08,0.606,0.114,0.926,0.114c0.264,0,0.515-0.022,0.767-0.08l0.801,17.732L27.932,53.564z"/>
	</g>
</g>
</svg>
