<?xml version="1.0" encoding="utf-8"?>
<!-- Generator: Adobe Illustrator 15.0.0, SVG Export Plug-In . SVG Version: 6.00 Build 0)  -->
<!DOCTYPE svg PUBLIC "-//W3C//DTD SVG 1.1//EN" "http://www.w3.org/Graphics/SVG/1.1/DTD/svg11.dtd" [
	<!ENTITY ns_extend "http://ns.adobe.com/Extensibility/1.0/">
	<!ENTITY ns_ai "http://ns.adobe.com/AdobeIllustrator/10.0/">
	<!ENTITY ns_graphs "http://ns.adobe.com/Graphs/1.0/">
	<!ENTITY ns_vars "http://ns.adobe.com/Variables/1.0/">
	<!ENTITY ns_imrep "http://ns.adobe.com/ImageReplacement/1.0/">
	<!ENTITY ns_sfw "http://ns.adobe.com/SaveForWeb/1.0/">
	<!ENTITY ns_custom "http://ns.adobe.com/GenericCustomNamespace/1.0/">
	<!ENTITY ns_adobe_xpath "http://ns.adobe.com/XPath/1.0/">
]>
<svg version="1.1" id="Calque_1" xmlns:x="&ns_extend;" xmlns:i="&ns_ai;" xmlns:graph="&ns_graphs;"
	 xmlns="http://www.w3.org/2000/svg" xmlns:xlink="http://www.w3.org/1999/xlink" x="0px" y="0px" width="56px" height="56px"
	 viewBox="0 0 56 56" enable-background="new 0 0 56 56" xml:space="preserve">
<metadata>
	<sfw  xmlns="&ns_sfw;">
		<slices></slices>
		<sliceSourceBounds  x="-0.5" y="5.199" width="56" height="46.602" bottomLeftOrigin="true"></sliceSourceBounds>
	</sfw>
</metadata>
<polygon fill="#FFB300" points="21.282,17.375 31.834,17.375 30.938,23.82 22.344,23.466 21.282,20.917 20.574,17.375 "/>
<g>
	<g>
		<path d="M12.728,51.301c-0.54,0-0.979-0.439-0.979-0.98s0.439-0.979,0.979-0.979h3.719v-1.368c0-1.519,1.026-2.843,2.495-3.224
			l0.102-0.026l1.722-5.168H4.526C2.03,39.553,0,37.521,0,35.027V9.225c0-2.496,2.03-4.526,4.526-4.526h46.947
			c2.496,0,4.527,2.03,4.527,4.526v25.802c0,2.494-2.031,4.525-4.527,4.525h-16.24l1.724,5.168l0.103,0.027
			c1.469,0.381,2.494,1.705,2.494,3.223v1.369h3.719c0.541,0,0.982,0.439,0.982,0.98S43.813,51.3,43.271,51.3L12.728,51.301
			L12.728,51.301z M19.776,46.6c-0.754,0-1.369,0.615-1.369,1.371v1.369h19.186v-1.369c0-0.756-0.614-1.371-1.37-1.371H19.776z
			 M21.137,44.641h13.726l-1.696-5.088H22.833L21.137,44.641z M1.96,35.027c0,1.414,1.151,2.565,2.566,2.565h46.947
			c1.416,0,2.565-1.151,2.565-2.565V33.68H1.96V35.027z M1.96,31.719h52.078v-20.36H1.96V31.719z M4.526,6.659
			c-1.4,0-2.55,1.141-2.563,2.542L1.96,9.397h52.08l-0.002-0.196c-0.013-1.401-1.164-2.542-2.565-2.542H4.526z"/>
	</g>
	<g>
		<path d="M30.882,25.145l-8.751-0.58c-0.451-0.03-0.82-0.362-0.898-0.808l-1.056-5.92c-0.093-0.531,0.265-1.04,0.796-1.133
			c0.057-0.01,0.113-0.014,0.169-0.014l9.981-0.001l0.172-1.364c0.063-0.487,0.477-0.854,0.964-0.854l2.604,0.013
			c0.262,0,0.506,0.103,0.688,0.288c0.185,0.185,0.285,0.431,0.284,0.691c-0.002,0.536-0.439,0.972-0.977,0.972l-1.738-0.008
			l-1,7.882c-0.063,0.487-0.477,0.853-0.967,0.853L30.882,25.145z M23.026,22.664l7.277,0.484l0.57-4.5h-8.562L23.026,22.664z"/>
	</g>
	<g>
		<circle cx="23.968" cy="27.626" r="0.98"/>
	</g>
	<g>
		<circle cx="29.957" cy="27.626" r="0.98"/>
	</g>
</g>
</svg>
