<?xml version="1.0" encoding="utf-8"?>
<!-- Generator: Adobe Illustrator 15.0.0, SVG Export Plug-In . SVG Version: 6.00 Build 0)  -->
<!DOCTYPE svg PUBLIC "-//W3C//DTD SVG 1.1//EN" "http://www.w3.org/Graphics/SVG/1.1/DTD/svg11.dtd" [
	<!ENTITY ns_extend "http://ns.adobe.com/Extensibility/1.0/">
	<!ENTITY ns_ai "http://ns.adobe.com/AdobeIllustrator/10.0/">
	<!ENTITY ns_graphs "http://ns.adobe.com/Graphs/1.0/">
	<!ENTITY ns_vars "http://ns.adobe.com/Variables/1.0/">
	<!ENTITY ns_imrep "http://ns.adobe.com/ImageReplacement/1.0/">
	<!ENTITY ns_sfw "http://ns.adobe.com/SaveForWeb/1.0/">
	<!ENTITY ns_custom "http://ns.adobe.com/GenericCustomNamespace/1.0/">
	<!ENTITY ns_adobe_xpath "http://ns.adobe.com/XPath/1.0/">
]>
<svg version="1.1" id="Calque_1" xmlns:x="&ns_extend;" xmlns:i="&ns_ai;" xmlns:graph="&ns_graphs;"
	 xmlns="http://www.w3.org/2000/svg" xmlns:xlink="http://www.w3.org/1999/xlink" x="0px" y="0px" width="56px" height="56px"
	 viewBox="0 0 56 56" enable-background="new 0 0 56 56" xml:space="preserve">
<metadata>
	<sfw  xmlns="&ns_sfw;">
		<slices></slices>
		<sliceSourceBounds  x="-0.5" y="0.5" width="56.003" height="56" bottomLeftOrigin="true"></sliceSourceBounds>
	</sfw>
</metadata>
<polygon fill="#FFB300" points="45.139,24.598 44.769,13.157 34.019,4.917 38.916,1.794 44.395,0.803 48.548,2.361 52.868,5.194 
	55.276,10.032 55.276,15.124 53.081,19.375 50.531,22.569 46.777,23.775 "/>
<g>
	<path d="M49,26.906h-0.355h-1.785h-2.573h-1.838h-2.61h-1.121V28c0,0.01,0.002,0.02,0.002,0.029v22.284
		c0,1.318,0.453,2.533,1.209,3.5H5.688c-1.93,0-3.5-1.57-3.5-3.5V3.736l2.004,2.003c0.427,0.427,1.119,0.427,1.547,0l3.098-3.098
		l3.099,3.098c0.427,0.427,1.12,0.427,1.547,0l3.099-3.098l3.098,3.098c0.428,0.427,1.12,0.427,1.547,0l3.099-3.098l3.099,3.098
		c0.428,0.427,1.12,0.427,1.546,0l3.1-3.098c0.486-0.552,0.937-1.134,1.492-1.601l-0.721-0.72c-0.427-0.427-1.119-0.427-1.547,0
		l-3.097,3.099L25.097,0.32c-0.427-0.427-1.12-0.427-1.547,0l-3.099,3.099L17.354,0.32c-0.428-0.427-1.12-0.427-1.547,0l-3.1,3.099
		L9.61,0.32c-0.427-0.427-1.119-0.427-1.547,0L4.965,3.419L1.867,0.32c-0.425-0.424-1.111-0.427-1.54-0.006
		C0.102,0.536-0.007,0.83,0,1.123v49.189C0,53.449,2.552,56,5.688,56h38.716c0,0,0,0,0.002,0c3.136,0,5.688-2.551,5.688-5.688V28
		C50.094,27.396,49.604,26.906,49,26.906z M47.906,50.313c0,1.931-1.57,3.5-3.5,3.5s-3.5-1.569-3.5-3.5V29.094h7V50.313z"/>
	<path d="M19.454,24.934c-1.086,0-1.969-0.756-1.969-1.686c0-0.604-0.49-1.094-1.094-1.094s-1.094,0.489-1.094,1.094
		c0,1.783,1.299,3.287,3.063,3.736v0.893c0,0.604,0.489,1.094,1.094,1.094c0.604,0,1.094-0.49,1.094-1.094v-0.893
		c1.762-0.449,3.063-1.953,3.063-3.736c0-2.136-1.865-3.873-4.156-3.873c-1.086,0-1.969-0.756-1.969-1.686
		c0-0.929,0.883-1.686,1.969-1.686c1.085,0,1.969,0.756,1.969,1.686c0,0.604,0.489,1.094,1.094,1.094
		c0.604,0,1.094-0.489,1.094-1.094c0-1.783-1.301-3.287-3.063-3.736v-0.741c0-0.604-0.49-1.094-1.094-1.094s-1.094,0.49-1.094,1.094
		v0.741c-1.764,0.449-3.063,1.953-3.063,3.736c0,2.136,1.864,3.873,4.156,3.873c1.085,0,1.969,0.756,1.969,1.686
		C21.422,24.177,20.539,24.934,19.454,24.934z"/>
	<path d="M28.31,19.375c-0.604,0-1.094,0.49-1.094,1.094c0,0.604,0.489,1.094,1.094,1.094h2.131c0.365,0,0.676-0.192,0.873-0.47
		c-0.385-0.548-0.729-1.123-1.033-1.718H28.31z"/>
	<path d="M11.69,20.469c0-0.604-0.489-1.094-1.094-1.094H8.465c-0.604,0-1.094,0.49-1.094,1.094c0,0.604,0.489,1.094,1.094,1.094
		h2.131C11.201,21.563,11.69,21.073,11.69,20.469z"/>
	<path d="M30.994,31.532H13.667c-0.604,0-1.094,0.489-1.094,1.094s0.489,1.095,1.094,1.095h17.327c0.604,0,1.094-0.49,1.094-1.095
		S31.6,31.532,30.994,31.532z"/>
	<path d="M8.684,31.854c-0.203-0.205-0.485-0.32-0.773-0.32c-0.287,0-0.569,0.115-0.773,0.32c-0.203,0.203-0.32,0.484-0.32,0.772
		s0.117,0.569,0.32,0.772c0.204,0.203,0.486,0.32,0.773,0.32c0.288,0,0.57-0.117,0.773-0.32s0.32-0.484,0.32-0.772
		S8.887,32.057,8.684,31.854z"/>
	<path d="M30.994,38.75H13.667c-0.604,0-1.094,0.49-1.094,1.094c0,0.604,0.489,1.094,1.094,1.094h17.327
		c0.604,0,1.094-0.488,1.094-1.094C32.088,39.24,31.6,38.75,30.994,38.75z"/>
	<path d="M8.684,39.07c-0.203-0.203-0.485-0.32-0.773-0.32c-0.287,0-0.569,0.117-0.773,0.32c-0.203,0.203-0.32,0.486-0.32,0.772
		c0,0.288,0.117,0.57,0.32,0.773c0.204,0.202,0.486,0.319,0.773,0.319c0.288,0,0.57-0.117,0.773-0.319
		c0.203-0.203,0.32-0.485,0.32-0.773C9.004,39.557,8.887,39.273,8.684,39.07z"/>
	<path d="M30.994,45.969H13.667c-0.604,0-1.094,0.49-1.094,1.094c0,0.604,0.489,1.095,1.094,1.095h17.327
		c0.604,0,1.094-0.489,1.094-1.095C32.088,46.459,31.6,45.969,30.994,45.969z"/>
	<path d="M7.911,45.969c-0.287,0-0.569,0.117-0.773,0.32c-0.203,0.204-0.32,0.486-0.32,0.773s0.117,0.569,0.32,0.772
		c0.204,0.203,0.486,0.319,0.773,0.319c0.288,0,0.57-0.116,0.773-0.319s0.32-0.485,0.32-0.772s-0.117-0.569-0.32-0.773
		C8.481,46.086,8.199,45.969,7.911,45.969z"/>
	<path d="M40.771,22.987c-0.084-0.021-0.166-0.03-0.246-0.03c-0.008,0-0.014,0.003-0.021,0.003c-0.447,0.009-0.854,0.313-0.968,0.77
		c-0.091,0.358,0.036,0.707,0.276,0.952c0.127,0.128,0.276,0.236,0.465,0.283c0.25,0.062,0.504,0.118,0.755,0.164
		c0.063,0.012,0.125,0.017,0.187,0.017c0.215,0,0.418-0.068,0.586-0.186c0.211-0.148,0.364-0.375,0.416-0.646
		c0.103-0.554-0.264-1.085-0.816-1.188C41.191,23.086,40.979,23.04,40.771,22.987z"/>
	<path d="M30.852,11.668c-0.1,0.15-0.174,0.318-0.182,0.511c-0.01,0.257-0.013,0.517-0.007,0.772
		c0.005,0.193,0.075,0.362,0.173,0.514c0.182,0.285,0.484,0.483,0.846,0.483c0.008,0,0.016,0,0.022,0
		c0.209-0.004,0.403-0.073,0.563-0.185c0.2-0.142,0.349-0.354,0.405-0.601c0.019-0.082,0.028-0.167,0.026-0.255
		c-0.006-0.214-0.004-0.433,0.006-0.647c0.004-0.09-0.021-0.172-0.042-0.257c-0.099-0.44-0.464-0.782-0.937-0.801
		c-0.014,0-0.025-0.001-0.039-0.001C31.334,11.2,31.034,11.391,30.852,11.668z"/>
	<path d="M31.949,9.98c0.105,0.035,0.215,0.052,0.32,0.052c0.213,0,0.418-0.067,0.588-0.187c0.103-0.072,0.185-0.167,0.256-0.274
		c0.049-0.074,0.095-0.15,0.123-0.238c0.068-0.205,0.144-0.409,0.223-0.609c0.21-0.522-0.045-1.115-0.566-1.324
		c-0.123-0.05-0.252-0.073-0.377-0.073c-0.404,0-0.789,0.243-0.947,0.641c-0.094,0.238-0.185,0.482-0.266,0.726
		c-0.061,0.185-0.05,0.368-0.008,0.545C31.372,9.572,31.602,9.864,31.949,9.98z"/>
	<path d="M33.684,20.884c0.125,0.147,0.287,0.233,0.459,0.29c0.104,0.034,0.209,0.068,0.316,0.068c0.204,0,0.409-0.061,0.586-0.186
		c0.025-0.018,0.051-0.037,0.074-0.057c0.357-0.304,0.436-0.796,0.244-1.202c-0.037-0.081-0.068-0.164-0.129-0.234
		c-0.139-0.164-0.275-0.334-0.404-0.507c-0.055-0.073-0.133-0.113-0.202-0.167c-0.183-0.142-0.39-0.24-0.614-0.24
		c-0.212,0-0.427,0.066-0.609,0.204c-0.297,0.223-0.42,0.577-0.385,0.922c0.019,0.177,0.065,0.352,0.181,0.504
		C33.354,20.485,33.518,20.689,33.684,20.884z"/>
	<path d="M35.994,22.813c0.076,0.163,0.182,0.313,0.343,0.419c0.215,0.142,0.437,0.278,0.657,0.406
		c0.16,0.093,0.336,0.137,0.508,0.137c0.005,0,0.01-0.002,0.016-0.002c0.205-0.003,0.404-0.065,0.573-0.184
		c0.116-0.083,0.218-0.191,0.296-0.324c0.234-0.408,0.141-0.899-0.177-1.217c-0.062-0.062-0.119-0.129-0.198-0.175
		c-0.187-0.107-0.371-0.222-0.552-0.341c-0.076-0.051-0.159-0.085-0.242-0.113c-0.104-0.035-0.211-0.056-0.317-0.056
		c-0.33,0-0.654,0.161-0.852,0.458C35.846,22.13,35.848,22.502,35.994,22.813z"/>
	<path d="M32.807,17.766c0.082-0.031,0.156-0.072,0.226-0.12c0.301-0.212,0.454-0.573,0.415-0.938
		c-0.01-0.085-0.02-0.172-0.051-0.256c-0.078-0.202-0.148-0.408-0.213-0.614c-0.025-0.085-0.07-0.158-0.115-0.23
		c-0.187-0.297-0.508-0.484-0.856-0.484c-0.101,0-0.203,0.015-0.305,0.047c-0.353,0.11-0.584,0.399-0.667,0.732
		c-0.045,0.175-0.059,0.359-0.002,0.544c0.078,0.244,0.162,0.489,0.255,0.729c0.067,0.179,0.187,0.321,0.327,0.432
		c0.178,0.14,0.396,0.225,0.625,0.225C32.564,17.833,32.688,17.812,32.807,17.766z"/>
	<path d="M53.979,5.812c-0.011-0.016-0.018-0.032-0.028-0.048c-0.087-0.134-0.177-0.268-0.269-0.398
		c-0.057-0.08-0.113-0.159-0.173-0.237c-0.014-0.019-0.028-0.036-0.044-0.054c-0.188-0.25-0.385-0.487-0.587-0.72
		c-0.481-0.556-1.006-1.065-1.569-1.523c-0.899-0.732-1.896-1.333-2.967-1.791c-0.594-0.255-1.207-0.471-1.841-0.634
		c-0.013-0.003-0.024-0.007-0.037-0.01c-0.002,0-0.004-0.001-0.007-0.001c-0.12-0.031-0.244-0.051-0.365-0.078
		c-0.197-0.044-0.396-0.093-0.599-0.128C44.764,0.063,44.029,0,43.303,0c-2.492,0-4.922,0.736-7.027,2.149l-0.797-1.153
		c-0.1-0.144-0.207-0.213-0.307-0.213c-0.121,0-0.229,0.106-0.285,0.313L33.958,4.44c-0.104,0.375,0.128,0.71,0.517,0.745
		l3.455,0.31c0.025,0.002,0.051,0.003,0.074,0.003c0.331,0,0.436-0.223,0.229-0.522l-0.797-1.149
		c1.806-1.203,3.854-1.782,5.885-1.782c0.82,0,1.638,0.097,2.436,0.283c1.281,0.3,2.512,0.834,3.614,1.595
		c0.013,0.008,0.024,0.016,0.037,0.025c0.735,0.513,1.417,1.125,2.02,1.834c0.207,0.244,0.405,0.498,0.593,0.764
		c3.377,4.792,2.225,11.437-2.566,14.813c-0.329,0.231-0.668,0.442-1.016,0.633l-0.002,0.001c-0.16,0.087-0.326,0.169-0.492,0.25
		c-0.028,0.014-0.057,0.03-0.086,0.044c-0.012,0.005-0.021,0.01-0.029,0.016c-0.661,0.31-1.357,0.529-2.071,0.696
		c-0.181,0.043-0.356,0.101-0.541,0.134c-0.554,0.099-0.923,0.628-0.821,1.182c0.088,0.492,0.517,0.839,0.998,0.839
		c0.061,0,0.121-0.005,0.183-0.017c0.062-0.011,0.12-0.031,0.183-0.043c0.753-0.146,1.482-0.362,2.188-0.638
		c0.94-0.368,1.841-0.839,2.683-1.433c0.583-0.411,1.126-0.865,1.623-1.356c0.001-0.002,0.003-0.002,0.004-0.005
		c0.005-0.004,0.011-0.009,0.015-0.013c1.854-1.836,3.09-4.195,3.545-6.818c0.045-0.257,0.08-0.514,0.107-0.771
		c0.003-0.016,0.008-0.032,0.008-0.048c0.027-0.255,0.049-0.514,0.061-0.77c0.001-0.009,0-0.018,0-0.026
		C56.105,10.604,55.414,8.034,53.979,5.812z"/>
	<path d="M44.779,5.264c0-0.455-0.369-0.824-0.824-0.824s-0.824,0.37-0.824,0.824v7.208l-6.617,3.421
		c-0.404,0.209-0.563,0.707-0.354,1.111c0.146,0.283,0.436,0.446,0.732,0.446c0.127,0,0.256-0.029,0.377-0.092l7.51-3.883V5.264
		L44.779,5.264z"/>
</g>
</svg>
