<?xml version="1.0" encoding="utf-8"?>
<!-- Generator: Adobe Illustrator 15.0.0, SVG Export Plug-In . SVG Version: 6.00 Build 0)  -->
<!DOCTYPE svg PUBLIC "-//W3C//DTD SVG 1.1//EN" "http://www.w3.org/Graphics/SVG/1.1/DTD/svg11.dtd" [
	<!ENTITY ns_extend "http://ns.adobe.com/Extensibility/1.0/">
	<!ENTITY ns_ai "http://ns.adobe.com/AdobeIllustrator/10.0/">
	<!ENTITY ns_graphs "http://ns.adobe.com/Graphs/1.0/">
	<!ENTITY ns_vars "http://ns.adobe.com/Variables/1.0/">
	<!ENTITY ns_imrep "http://ns.adobe.com/ImageReplacement/1.0/">
	<!ENTITY ns_sfw "http://ns.adobe.com/SaveForWeb/1.0/">
	<!ENTITY ns_custom "http://ns.adobe.com/GenericCustomNamespace/1.0/">
	<!ENTITY ns_adobe_xpath "http://ns.adobe.com/XPath/1.0/">
]>
<svg version="1.1" id="Capa_1" xmlns:x="&ns_extend;" xmlns:i="&ns_ai;" xmlns:graph="&ns_graphs;"
	 xmlns="http://www.w3.org/2000/svg" xmlns:xlink="http://www.w3.org/1999/xlink" x="0px" y="0px" width="56px" height="56px"
	 viewBox="0 0 56 56" enable-background="new 0 0 56 56" xml:space="preserve">
<metadata>
	<sfw  xmlns="&ns_sfw;">
		<slices></slices>
		<sliceSourceBounds  x="-0.5" y="0.5" width="56" height="56" bottomLeftOrigin="true"></sliceSourceBounds>
	</sfw>
</metadata>
<polygon fill="#FFB300" points="11.919,13.962 20.911,13.963 22.557,24.528 21.282,25.024 17.445,25.803 11.508,25.024 10.5,23.891 
	10.5,17.305 11.154,13.622 "/>
<g>
	<g>
		<path d="M54.906,22.832h-7c-0.604,0-1.094,0.49-1.094,1.094v15.523c0,0.604,0.489,1.094,1.094,1.094
			c0.604,0,1.094-0.49,1.094-1.094V25.02h4.813v28.792h-2.405H49v-16.16c0-0.604-0.49-1.094-1.094-1.094
			c-0.604,0-1.094,0.49-1.094,1.094v16.16h-2.188V31.172c0-0.604-0.49-1.094-1.095-1.094h-7c-0.604,0-1.094,0.49-1.094,1.094v22.641
			H33.25V38.828c0-0.604-0.49-1.094-1.094-1.094h-7c-0.604,0-1.094,0.49-1.094,1.094v14.984h-2.188v-8.709
			c0-0.604-0.49-1.095-1.094-1.095h-7c-0.604,0-1.094,0.49-1.094,1.095v8.709H3.281c-0.603,0-1.094-0.49-1.094-1.095V3.281
			c0-0.603,0.491-1.094,1.094-1.094h28.216v7.219c0,1.809,1.472,3.281,3.28,3.281h7.22V26.14c0,0.604,0.489,1.094,1.094,1.094
			s1.095-0.49,1.095-1.094V11.594c0-0.29-0.115-0.568-0.32-0.773l-10.5-10.5C33.159,0.115,32.881,0,32.591,0H3.281
			C1.472,0,0,1.472,0,3.281v49.438C0,54.527,1.472,56,3.281,56h51.625C55.51,56,56,55.51,56,54.906v-30.98
			C56,23.322,55.51,22.832,54.906,22.832z M33.686,3.734l6.767,6.766h-5.673c-0.604,0-1.094-0.491-1.094-1.094V3.734z
			 M19.688,53.813h-4.813v-7.614h4.813V53.813z M31.063,53.813H26.25V39.922h4.813V53.813z M42.438,53.813h-4.813V32.266h4.813
			V53.813z"/>
	</g>
</g>
<g>
	<g>
		<path d="M27.891,32.184H7c-0.604,0-1.094,0.49-1.094,1.094c0,0.604,0.49,1.094,1.094,1.094h20.891c0.604,0,1.093-0.49,1.093-1.094
			C28.984,32.673,28.495,32.184,27.891,32.184z"/>
	</g>
</g>
<g>
	<g>
		<path d="M14,37.461H7c-0.604,0-1.094,0.49-1.094,1.094c0,0.604,0.49,1.094,1.094,1.094h7c0.604,0,1.094-0.49,1.094-1.094
			C15.094,37.95,14.604,37.461,14,37.461z"/>
	</g>
</g>
<g>
	<path d="M22.877,13.529c-0.067-0.875-0.807-1.56-1.684-1.56h-1.022c-0.216-1.882-1.818-3.349-3.757-3.349
		c-1.921,0-3.512,1.439-3.751,3.349h-1.028c-0.877,0-1.617,0.685-1.684,1.557l-0.759,9.557c-0.069,0.903,0.244,1.803,0.86,2.468
		c0.616,0.665,1.489,1.046,2.395,1.046h7.932c0.907,0,1.78-0.381,2.395-1.046c0.616-0.665,0.93-1.565,0.86-2.471L22.877,13.529z
		 M13.63,15.686c0.55,0,0.998-0.447,0.998-0.998v-0.725h3.574v0.725c0,0.55,0.447,0.998,0.997,0.998c0.55,0,0.997-0.447,0.997-0.998
		v-0.725h0.715l0.736,9.272c0.027,0.357-0.091,0.698-0.333,0.959c-0.244,0.263-0.575,0.407-0.933,0.407h-7.932
		c-0.357,0-0.688-0.145-0.932-0.407c-0.244-0.262-0.362-0.603-0.334-0.958l0.736-9.274h0.715v0.725
		C12.633,15.239,13.08,15.686,13.63,15.686z M14.681,11.969c0.194-0.777,0.898-1.354,1.734-1.354c0.822,0,1.517,0.558,1.724,1.354
		H14.681z"/>
	<path d="M15.024,21.178c0.188,0.19,0.439,0.294,0.707,0.294s0.519-0.104,0.705-0.292l2.571-2.571
		c0.188-0.188,0.292-0.438,0.293-0.705c0-0.267-0.104-0.518-0.293-0.707c-0.377-0.376-1.033-0.376-1.409,0l-1.867,1.867l-0.5-0.501
		c-0.377-0.375-1.032-0.376-1.41,0.001c-0.188,0.188-0.292,0.439-0.292,0.705s0.104,0.517,0.292,0.705L15.024,21.178z"/>
</g>
</svg>
